<?xml version="1.0" encoding="iso-8859-1"?>
<!-- Generator: Adobe Illustrator 19.0.0, SVG Export Plug-In . SVG Version: 6.00 Build 0)  -->
<svg xmlns="http://www.w3.org/2000/svg" xmlns:xlink="http://www.w3.org/1999/xlink" version="1.1" id="Capa_1" x="0px" y="0px" viewBox="0 0 490 490" style="enable-background:new 0 0 490 490;" xml:space="preserve" width="512px" height="512px">
<g>
	<path d="M245,253.297c46.174,0,83.743-37.564,83.743-83.743S291.174,85.811,245,85.811c-46.175,0-83.743,37.563-83.743,83.743   S198.825,253.297,245,253.297z M245,106.67c34.676,0,62.884,28.213,62.884,62.884c0,34.671-28.208,62.885-62.884,62.885   c-34.675,0-62.884-28.213-62.884-62.885C182.116,134.883,210.324,106.67,245,106.67z" fill="#FFFFFF"/>
	<path d="M368.033,282.152v-61.641l43.583-43.584c4.074-4.074,4.074-10.673,0-14.747l-43.583-43.594V56.956   c0-5.764-4.67-10.43-10.43-10.43h-61.642L252.374,2.933c-3.911-3.911-10.836-3.911-14.748,0l-43.588,43.593h-61.642   c-5.759,0-10.43,4.666-10.43,10.43v61.631L78.384,162.18c-4.074,4.074-4.074,10.673,0,14.747l43.583,43.584v61.641   c0,5.764,4.67,10.429,10.43,10.429h3.258l-27.891,170.431c-1.346,8.144,8.008,15.582,16.138,10.318l44.596-30.199l32.633,42.838   c6.15,7.726,17.532,3.331,18.589-4.644l23.286-142.296c0.658,0.128,1.326,0.191,1.994,0.191c0.668,0,1.335-0.064,1.993-0.191   l23.287,142.296c1.573,10.146,14.688,10.825,18.588,4.644l32.633-42.838l44.596,30.199c9.923,6.182,17.805-4.146,16.139-10.318   l-27.892-170.431h3.259C363.363,292.581,368.033,287.916,368.033,282.152z M100.507,169.553l39.264-39.274   c1.955-1.956,3.056-4.603,3.056-7.374v-55.52h55.53c2.766,0,5.419-1.1,7.375-3.056L245,25.055l39.269,39.275   c1.956,1.956,4.609,3.056,7.375,3.056h55.53v55.52c0,2.771,1.099,5.418,3.055,7.374l39.265,39.274l-39.265,39.265   c-1.956,1.956-3.055,4.604-3.055,7.374v55.53h-55.535c-2.766,0-5.419,1.1-7.375,3.056L245,314.042l-39.265-39.264   c-1.956-1.956-4.609-3.056-7.374-3.056h-55.535v-55.53c0-2.77-1.1-5.418-3.056-7.374L100.507,169.553z M203.047,454.059   l-23.935-31.422c-2.047-2.679-5.148-4.104-8.301-4.104c-2.021,0-4.054,0.579-5.842,1.793l-32.71,22.152l24.532-149.897h37.252   l1.189,1.19l29.255,29.265L203.047,454.059z M357.741,442.478l-32.711-22.152c-4.572-3.097-10.786-2.088-14.142,2.311   l-23.936,31.422l-21.439-131.023l29.285-29.296l1.158-1.159h37.253L357.741,442.478z" fill="#FFFFFF"/>
</g>
<g>
</g>
<g>
</g>
<g>
</g>
<g>
</g>
<g>
</g>
<g>
</g>
<g>
</g>
<g>
</g>
<g>
</g>
<g>
</g>
<g>
</g>
<g>
</g>
<g>
</g>
<g>
</g>
<g>
</g>
</svg>
